<svg xmlns="http://www.w3.org/2000/svg" viewBox="0 0 1615.23 1076.82">
    <defs>
        <style>.cls-1,.cls-2{fill-rule:evenodd;}.cls-2{fill:#fff;}.cls-3,.cls-4,.cls-5{fill:none;stroke:#000;stroke-miterlimit:10;stroke-width:10px;}.cls-4{stroke-dasharray:40.24 20.12;}.cls-5{stroke-dasharray:40.41 20.2;}</style>
    </defs>
    <path class="cls-1" d="M1493.94,807.62a147.71,147.71,0,1,1-147.71-147.71A147.71,147.71,0,0,1,1493.94,807.62Z"/>
    <path class="cls-1" d="M1077,538.41v538.41h538.41V538.41Zm269.2,476.47c-114.47,0-207.26-92.8-207.26-207.26s92.79-207.27,207.26-207.27,207.27,92.8,207.27,207.27S1460.7,1014.88,1346.23,1014.88Z"/>
    <path class="cls-2" d="M1493.94,807.62a147.71,147.71,0,1,1-147.71-147.71A147.71,147.71,0,0,1,1493.94,807.62Z"/>
    <path class="cls-1" d="M1493.94,807.62a147.71,147.71,0,1,1-147.71-147.71A147.71,147.71,0,0,1,1493.94,807.62Z"/>
    <path class="cls-1" d="M.21,538.41v538.41H538.62V538.41ZM461.62,888.49a218.17,218.17,0,0,1-112.7,112.7,215.33,215.33,0,0,1-165.09,0A218.14,218.14,0,0,1,71.12,888.49a215.47,215.47,0,0,1,0-165.1,218.14,218.14,0,0,1,112.71-112.7,210.94,210.94,0,0,1,81.63-16.45Q373.28,591.81,441.52,682q7.31,10.37,3.65,23.15A27.63,27.63,0,0,1,430.55,724Q408,736.8,387.91,713q-49.35-57.87-122.45-57.88-62.76,1.23-106,44.47Q115.6,743.51,115.6,806.24q0,62.14,44.47,106,43.86,44.47,106,44.47,54.21,0,96.25-34.73,42-34.11,51.78-85.29H281.91a28,28,0,0,1-21.33-9.13q-9.13-9.15-9.13-21.33a29.93,29.93,0,0,1,9.13-21.93q8.54-8.52,21.33-8.53h165.7q11,0,21.32,8.53a29.94,29.94,0,0,1,9.14,21.93A212.29,212.29,0,0,1,461.62,888.49Z"/>
    <path class="cls-1" d="M538.62,0V538.41H1077V0ZM931.15,437.8,805.44,312.09,680.92,436.61l-41.69-41.69L763.75,270.4,638,144.68l44.07-44.07L807.82,226.32,932.34,101.8,974,143.49,849.51,268,975.23,393.73Z"/>
    <circle cx="597.97" cy="748.06" r="59.56"/>
    <line x1="597.97" y1="748.06" x2="814.76" y2="538.41"/>
    <line class="cls-3" x1="597.97" y1="748.06" x2="612.34" y2="734.15"/>
    <line class="cls-4" x1="626.81" y1="720.17" x2="793.15" y2="559.31"/>
    <line class="cls-3" x1="800.38" y1="552.31" x2="814.76" y2="538.41"/>
    <line x1="1075.17" y1="790.94" x2="814.03" y2="538.41"/>
    <line class="cls-3" x1="1075.17" y1="790.94" x2="1060.79" y2="777.04"/>
    <line class="cls-5" x1="1046.27" y1="762.99" x2="835.67" y2="559.34"/>
    <line class="cls-3" x1="828.41" y1="552.31" x2="814.03" y2="538.41"/>
    <line x1="1075.17" y1="790.94" x2="814.03" y2="1043.47"/>
    <line class="cls-3" x1="1075.17" y1="790.94" x2="1060.79" y2="804.84"/>
    <line class="cls-5" x1="1046.27" y1="818.89" x2="835.67" y2="1022.54"/>
    <line class="cls-3" x1="828.41" y1="1029.57" x2="814.03" y2="1043.47"/>
</svg>